<svg width="56" height="56" viewBox="0 0 56 56" fill="none" xmlns="http://www.w3.org/2000/svg">
<rect x="4" y="4" width="48" height="48" rx="24" fill="#FEEBC8"/>
<path d="M28.0027 24.0002V28.0002M28.0027 32.0002H28.0127M26.2927 18.8602L17.8227 33.0002C17.6481 33.3026 17.5557 33.6455 17.5547 33.9947C17.5537 34.3439 17.6442 34.6873 17.8171 34.9907C17.9901 35.2941 18.2394 35.547 18.5404 35.7241C18.8414 35.9012 19.1835 35.9964 19.5327 36.0002H36.4727C36.8219 35.9964 37.164 35.9012 37.465 35.7241C37.766 35.547 38.0153 35.2941 38.1883 34.9907C38.3612 34.6873 38.4517 34.3439 38.4507 33.9947C38.4497 33.6455 38.3573 33.3026 38.1827 33.0002L29.7127 18.8602C29.5344 18.5663 29.2834 18.3233 28.9839 18.1547C28.6844 17.9861 28.3464 17.8975 28.0027 17.8975C27.659 17.8975 27.321 17.9861 27.0215 18.1547C26.722 18.3233 26.471 18.5663 26.2927 18.8602Z" stroke="#C05621" strokeWidth="2" strokeLinecap="round" strokeLinejoin="round"/>
<rect x="4" y="4" width="48" height="48" rx="24" stroke="#FFFAF0" strokeWidth="8"/>
</svg>
